<?xml version="1.0" encoding="UTF-8"?>
<svg id="Layer_2" data-name="Layer 2" xmlns="http://www.w3.org/2000/svg" viewBox="0 0 315.57 289.61">
  <defs>
    <style>
      .cls-1 {
        fill: #d26878;
      }

      .cls-1, .cls-2, .cls-3, .cls-4, .cls-5, .cls-6, .cls-7 {
        fill-rule: evenodd;
      }

      .cls-2 {
        fill: #fff;
      }

      .cls-8, .cls-5 {
        fill: #592b0d;
      }

      .cls-3 {
        fill: #ffeedc;
      }

      .cls-4 {
        fill: #fdcb8b;
      }

      .cls-6 {
        fill: #f092a0;
      }

      .cls-7 {
        fill: #cf925e;
      }
    </style>
  </defs>
  <g id="Layer_1-2" data-name="Layer 1">
    <g>
      <path class="cls-8" d="M58.49,150.08c1.81,11.05,3.84,26.79,4.28,41.41.25,8.35-.03,16.39-1.16,23.12.99-.28,1.95-.59,2.86-.95,2.86-1.11,5.4-2.63,7.32-4.83l10.55-12.07-1.81,15.91c-1.52,13.38,2.23,22.56,7.1,28.75,2.13,2.72,4.49,4.89,6.72,6.6.06-1.44.16-2.86.29-4.27.4-4.25,1.13-8.28,2.23-11.97l5.93-20.04,3.79,20.55c2.3,12.48,10.39,19.71,18.27,26.76,2.69,2.4,5.36,4.79,7.85,7.36.66-2.26,1.22-4.59,1.61-6.87.6-3.53.76-6.84.15-9.34l-.04-.12h0s-.05-.18-.05-.18l9.61-2.84c2.22,7,5.2,12.79,8.99,17.73,2.56,3.34,5.49,6.31,8.81,9.04,1.93-4.93,4-9.59,6.32-14.12,3.29-6.41,7.05-12.47,11.62-18.56l5.07-6.76,3.5,7.68c1.78,3.91,2.93,8.06,3.59,12.37.2,1.32.36,2.66.47,4.01,2.63-2.06,4.93-4.47,6.95-7.14,3.77-4.99,6.56-10.87,8.64-17.14l3.8-11.46,5.41,10.8c.88,1.75,2.45,3.64,4.28,5.46.41.41.83.8,1.25,1.2.59-4.8,1.26-9.16,2.21-13.41,1.53-6.86,3.76-13.2,7.49-20.2l2.54-4.77,4.55,2.91c2.2,1.4,4.58,3.25,6.78,5.49l.78.82c4.41-7.38,8.63-19.09,10.26-31.36,1.4-10.51.84-21.24-3.26-29.61H58.49ZM52.77,191.76c-.5-16.85-3.23-35.35-5.15-45.8l-1.09-5.92h213.28l1.48,2.41c6.63,10.83,7.75,24.97,5.95,38.53-2.35,17.63-9.8,34.65-16.44,41.87l-4.6,4.99-3.42-5.87c-1.04-1.78-2.3-3.36-3.64-4.73l-.53-.53c-1.77,4.1-3,8.06-3.93,12.24-1.36,6.1-2.13,12.89-3.03,21.24l-.88,8.28-6.9-4.65c-2.86-1.93-6.39-4.64-9.48-7.72l-.27-.27c-1.89,4.13-4.14,8.02-6.81,11.55-4.57,6.05-10.37,11.06-17.71,14.42l-7.4,3.38.32-8.12c.15-3.8,0-7.51-.54-11.09l-.05-.33c-1.77,2.84-3.4,5.71-4.91,8.66-3.02,5.88-5.63,12.18-8.13,19.22l-2.17,6.1-5.36-3.63c-6.42-4.35-11.86-9.24-16.34-15.09-.79-1.04-1.56-2.1-2.29-3.19-1.04,3.8-2.34,7.47-3.63,10.62l-3.54,8.67-5.24-7.75c-3.2-4.73-7.64-8.7-12.14-12.72-4.92-4.4-9.9-8.85-13.91-14.5,0,1.57.05,3.17.14,4.8l.46,8.64-7.72-3.92c-3.71-1.88-11.23-6.03-17.41-13.9-4.82-6.14-8.79-14.46-9.48-25.56-.72.33-1.45.64-2.19.93-4.02,1.55-8.28,2.44-12.52,3.07l-8.38,1.26,2.93-7.94c2.38-6.46,2.98-16.64,2.66-27.62h0Z"/>
      <path class="cls-4" d="M52.55,145.06c3.26,17.75,8.8,58.37,2.27,76.05,7.93-1.19,15.71-3.23,20.74-8.98-3.4,29.91,17.14,41.52,23.86,44.93-.47-8.66.2-16.9,2.26-23.85,4.07,22.07,22.99,28.7,32.81,43.22,3.35-8.18,6.84-20.23,4.73-27.84,4.79,15.12,13.01,25.16,24.96,33.25,5.11-14.39,10.77-25.93,19.57-37.67,3.17,6.96,4.11,14.78,3.78,23.07,13.04-5.95,20.68-17.92,25.17-31.47,2.65,5.29,9.25,10.71,13.97,13.89,1.81-16.95,3.14-27.59,10.15-40.72,3.49,2.23,7.53,5.77,10.3,10.51,10.69-11.6,23.75-51.75,9.9-74.39H52.55Z"/>
      <path class="cls-7" d="M56.54,118.92c3.26,17.75,10.62,77.62,5.34,93.85,9.43-4.02,11.57-5.64,16.59-11.39,2.86,20.65,8.84,30.69,15.57,34.11-.47-8.66,4.6-18.46,6.65-25.41,4.07,22.07,19.9,30.11,29.72,44.64,3.35-8.18,10.92-24.64,8.8-32.26,4.79,15.12,11.12,28.58,23.06,36.67,5.11-14.39,12.66-29.35,21.46-41.09,4.48,6.39,9.05,14.21,10.19,27.2,12.6-9.66,14.27-22.05,18.77-35.6,1.42,6.5,5.33,14.69,10.04,17.87,2.47-15.03,4.76-21.86,11.04-28.94,3.49,2.23,8.97,6.21,12.28,10.74,9.38-13.34,15.49-70.51,10.96-90.39H56.54Z"/>
      <path class="cls-8" d="M203.37,4.52c14.69.61,24.12,3.24,32.74,5.64,8.5,2.37,16.15,4.5,27.5,3.91l7.99-.42-3.45,7.22c-.63,1.31-1.32,2.51-2.07,3.62,3.68,1.69,6.92,3.52,9.86,5.61,4.61,3.28,8.41,7.14,11.93,12.01l5.25,7.26-8.2.26c3.09,2.23,6.08,4.66,8.87,7.25,6.36,5.9,11.73,12.64,14.88,19.67l3.87,8.64-7.77-1.74c1.09,2.25,2.09,4.59,3.01,6.99,2.32,6.04,4.17,12.58,5.64,18.7l2.13,8.85-10.38-4.07c1.35,7.72,1.82,14.66-1.08,20.74-2.73,5.72-7.35,10.09-12.56,15-8.88,8.38-19.7,18.59-22.69,39.95l-.17,1.24-.74.98c-2.73,3.63-6.6,5.81-10.78,6.91-4.67,1.23-9.77,1.08-13.97.08l-.93-.22-.81-.6c-6.54-4.85-11.3-12.12-14.7-20.7-3.84-9.69-5.96-21.11-6.94-32.53L197.59,4.28l5.79.24h0ZM233.58,19.33c-6.9-1.92-14.36-4-24.77-4.92l20.5,129.56c.91,10.59,2.85,21.09,6.31,29.84,2.63,6.65,6.13,12.24,10.69,15.94,2.66.5,5.68.51,8.42-.21,1.89-.5,3.61-1.35,4.9-2.64,3.71-23.71,15.6-34.93,25.39-44.17,4.5-4.24,8.49-8.01,10.47-12.17,2.41-5.05.82-12.89-1-21.83,0-1.83-1.59-7.86-2.03-10.02l9.33,3.65c-.86-2.86-1.82-5.74-2.9-8.54-2.12-5.54-4.65-10.65-7.66-14.53l-8.07-10.42,11.23,2.51c-2.07-2.62-4.45-5.15-7.03-7.54-6.3-5.84-13.74-10.8-20.77-14.17l-17.57-8.41,24.71-.79c-1.05-.93-2.14-1.8-3.29-2.62-3.81-2.71-8.32-4.95-13.97-7.06l-7.47-2.79,5.17-4.52c-7.74-.58-13.93-2.3-20.6-4.16h0Z"/>
      <path class="cls-4" d="M203.19,9.28c29.13,1.21,37.14,10.77,60.67,9.54-1.51,3.17-3.49,5.56-5.73,7.52,12.09,4.52,19.45,9.65,25.9,18.56l-15.39.49c14.04,6.72,29.59,19.45,35.71,33.09l-9.35-2.09c6.66,8.6,11,22.1,13.82,33.85-3.32-1.3-6.64-2.6-9.96-3.9,2.1,10.38,4.18,19.49.94,26.28-6.94,14.55-30.78,21.49-35.66,56.35-4.46,5.92-13.38,6.77-19.86,5.23-12.54-9.31-17.97-29.5-19.72-49.82L203.19,9.28h0Z"/>
      <path class="cls-3" d="M281.84,42.07c.74.9,1.47,1.84,2.19,2.83l-15.39.49c14.04,6.72,29.59,19.45,35.71,33.09l-9.35-2.09c6.66,8.6,11,22.1,13.82,33.85-5.04-13.37-11.5-25.81-18.76-37.06l8.54,1.49c-5.97-8.3-12.89-16.32-22.55-22.78l-12.91-8.81,18.7-1h0Z"/>
      <path class="cls-3" d="M203.19,9.28c29.13,1.21,37.14,10.77,60.67,9.54-1.51,3.17-3.49,5.57-5.73,7.52,12.09,4.52,19.45,9.65,25.9,18.56l-10.41.33c6.63,16.66,7.6,29.32,7.03,40.9-1.93-17.58-7.62-34.18-17.51-43.06,4.76-.48,9.59-.84,14.49-1.07-6.24-6.53-13.82-11.99-24.82-14.63,2.03-1.83,3.72-3.54,4.99-5.77-18.12,2.62-32.06-12.68-53.34-7.72l-1.26-4.61h0Z"/>
      <path class="cls-7" d="M296.38,133.54c-8.76,11.03-29.8,24.48-33.87,53.54-4.23,5.62-11.18,6.01-17.32,4.54-11.89-8.83-18.12-27.57-19.78-46.84-1.07-6.77-2.14-13.55-3.21-20.32,6.32,6.39,12.63,12.78,18.95,19.17-3.08,16.92.28,28.69,3.54,33.06.22-3.33,3.18-16.77,5.32-18.88.95,7.16,2.93,15.5,8.45,19.67,9.86-34.89,33.87-34.51,36.38-70.78,4.07,9.82,5.17,20.62,1.53,26.85h0Z"/>
      <path class="cls-7" d="M289.07,104.67c-2.63-2.63-5.26-5.26-7.88-7.88,1.63,12.25,1.31,26.64-1.9,39.59l-7.51-6.67c-1.25,10.46-8.44,15.4-12.45,27.66.41-6.22.83-12.44,1.24-18.67,1.9-4.67,3.8-9.33,5.71-14-.18-3.53-.37-7.05-.55-10.58,3.16,2.6,6.32,5.21,9.47,7.81.23-7.84.46-15.67.69-23.51-.95-5.3-1.89-10.6-2.83-15.9,3.36,2.65,6.73,5.3,10.09,7.95l-2.7-29.52c10.1,10.79,10.06,26.9,8.61,43.73h0Z"/>
      <path class="cls-7" d="M215.24,20.61c24.48.52,23.37,11.3,43.29,16.18-2.39,2.5-5.08,4.55-8.02,6.22,12.82,14.09,12.55,34.09,13.62,47.09l-6.43-5.53c1.79,9.7-3.35,32.27-6.22,39.62-11.55-20.78-27.41-78.13-36.23-103.58h0Z"/>
      <path class="cls-8" d="M269.4,45.37c10,8.44,11.2,27.49,11.25,40.76l-12.3-10.56c1.26,8.81,4.4,15.43,5.33,24.72.63,6.32.64,12.87.17,18.62-3.86-4.16-7.92-8.22-12.43-12.01l1.25,6.91c1.99,10.99-.66,17.44-3.29,23.81-1.02,2.48-2.04,4.95-2.82,7.68-2.5-2.11-4.64-4.59-6.43-7.44.64,9.4,3.19,12.87,9.21,19.5l.61-5.61c.51-4.72,2.11-8.6,3.71-12.5,2.32-5.63,4.66-11.32,4.28-19.78l9.33,9.02.62-4.44c.97-6.96,1.19-15.76.35-24.16-.4-4.03-1.05-7.97-1.97-11.59l8.71,7.48.17-4.71c.48-13.31-1.26-34.56-8.82-45.91l-6.94.22h0Z"/>
      <path class="cls-8" d="M106.76,14.4c-10.41.93-17.87,3-24.78,4.93-6.67,1.86-12.86,3.58-20.61,4.16l5.17,4.53-7.46,2.78c-5.65,2.11-10.16,4.34-13.97,7.06-1.15.82-2.25,1.69-3.3,2.63l24.7.79-17.56,8.41c-7.03,3.37-14.47,8.33-20.77,14.17-2.58,2.4-4.97,4.93-7.04,7.55l11.22-2.51-8.06,10.41c-3.01,3.88-5.54,9-7.66,14.53-1.08,2.81-2.04,5.69-2.9,8.55l9.33-3.65c-.44,2.15-2.03,8.18-2.03,10-1.82,8.94-3.41,16.78-1,21.84,1.98,4.16,5.98,7.93,10.47,12.17,9.79,9.24,21.68,20.46,25.39,44.16,1.29,1.29,3.02,2.14,4.9,2.64,2.74.72,5.76.7,8.42.21,4.57-3.7,8.06-9.29,10.69-15.94,3.46-8.75,5.4-19.26,6.31-29.85L106.76,14.4h0ZM79.45,10.17c8.62-2.4,18.05-5.03,32.74-5.64l5.78-.24-22.22,140.49c-.98,11.41-3.1,22.84-6.94,32.53-3.39,8.58-8.16,15.85-14.7,20.7l-.81.6-.93.22c-4.2,1-9.3,1.15-13.97-.08-4.18-1.1-8.05-3.29-10.78-6.91l-.74-.98-.17-1.23c-2.99-21.35-13.81-31.57-22.69-39.95-5.21-4.91-9.83-9.28-12.56-15-2.9-6.08-2.44-13.01-1.08-20.74l-10.38,4.07,2.13-8.85c1.47-6.12,3.32-12.65,5.64-18.7.92-2.4,1.92-4.75,3.01-7l-7.77,1.74,3.87-8.64c3.15-7.03,8.52-13.77,14.88-19.67,2.79-2.59,5.79-5.02,8.88-7.25l-8.21-.26,5.25-7.25c3.52-4.87,7.32-8.72,11.93-12.01,2.94-2.09,6.18-3.92,9.86-5.61-.73-1.09-1.42-2.3-2.06-3.62l-3.45-7.21,7.97.41c11.35.59,19.01-1.54,27.51-3.91h0Z"/>
      <path class="cls-4" d="M112.37,9.28c-29.13,1.21-37.14,10.77-60.67,9.54,1.51,3.17,3.49,5.56,5.73,7.52-12.09,4.52-19.45,9.65-25.9,18.56l15.39.49c-14.04,6.72-29.59,19.45-35.71,33.09l9.35-2.09c-6.66,8.6-11,22.1-13.82,33.85,3.32-1.3,6.64-2.6,9.96-3.9-2.1,10.38-4.18,19.49-.94,26.28,6.94,14.55,30.78,21.49,35.66,56.35,4.46,5.92,13.38,6.77,19.86,5.23,12.54-9.31,17.97-29.5,19.72-49.82L112.37,9.28h0Z"/>
      <path class="cls-3" d="M33.72,42.07c-.74.9-1.47,1.84-2.19,2.83l15.39.49c-14.04,6.72-29.59,19.45-35.71,33.09l9.35-2.09c-6.66,8.6-11,22.1-13.82,33.85,5.04-13.37,11.5-25.81,18.76-37.06l-8.54,1.49c5.97-8.3,12.89-16.32,22.55-22.78l12.91-8.81-18.7-1h0Z"/>
      <path class="cls-3" d="M112.37,9.28c-29.13,1.21-37.14,10.77-60.67,9.54,1.51,3.17,3.49,5.57,5.73,7.52-12.09,4.52-19.45,9.65-25.9,18.56l10.41.33c-6.63,16.66-7.6,29.32-7.03,40.9,1.93-17.58,7.62-34.18,17.51-43.06-4.76-.48-9.59-.84-14.49-1.07,6.24-6.53,13.82-11.99,24.82-14.63-2.03-1.83-3.72-3.54-4.99-5.77,18.12,2.62,32.06-12.68,53.34-7.72l1.26-4.61h0Z"/>
      <path class="cls-7" d="M19.18,133.54c8.76,11.03,29.8,24.48,33.87,53.54,4.23,5.62,11.18,6.01,17.32,4.54,11.89-8.83,18.12-27.57,19.78-46.84,1.07-6.77,2.14-13.55,3.21-20.32-6.32,6.39-12.64,12.78-18.95,19.17,3.08,16.92-.28,28.69-3.54,33.06-.22-3.33-3.18-16.77-5.32-18.88-.95,7.16-2.93,15.5-8.45,19.67-9.86-34.89-33.86-34.51-36.38-70.78-4.07,9.82-5.17,20.62-1.53,26.85h0Z"/>
      <path class="cls-7" d="M26.49,104.67c2.63-2.63,5.26-5.26,7.88-7.88-1.63,12.25-1.31,26.64,1.9,39.59l7.51-6.67c1.24,10.46,8.44,15.4,12.45,27.66-.41-6.22-.83-12.44-1.24-18.67-1.9-4.67-3.8-9.33-5.71-14,.18-3.53.37-7.05.55-10.58-3.16,2.6-6.32,5.21-9.47,7.81-.23-7.84-.46-15.67-.69-23.51.95-5.3,1.89-10.6,2.83-15.9-3.36,2.65-6.73,5.3-10.09,7.95l2.7-29.52c-10.1,10.79-10.06,26.9-8.61,43.73h0Z"/>
      <path class="cls-7" d="M100.32,20.61c-24.48.52-23.37,11.3-43.29,16.18,2.39,2.5,5.08,4.55,8.02,6.22-12.82,14.09-12.55,34.09-13.62,47.09l6.43-5.53c-1.79,9.7,3.35,32.27,6.22,39.62,11.55-20.78,27.41-78.13,36.23-103.58h0Z"/>
      <path class="cls-8" d="M46.17,45.37c-10,8.44-11.2,27.49-11.25,40.76l12.3-10.56c-1.26,8.81-4.4,15.43-5.33,24.72-.63,6.32-.64,12.87-.17,18.62,3.86-4.16,7.92-8.22,12.43-12.01l-1.25,6.91c-1.99,10.99.66,17.44,3.29,23.81,1.02,2.48,2.04,4.95,2.82,7.68,2.5-2.11,4.64-4.59,6.43-7.44-.64,9.4-3.19,12.87-9.21,19.5l-.61-5.61c-.51-4.72-2.11-8.6-3.71-12.5-2.32-5.63-4.66-11.32-4.28-19.78l-9.33,9.02-.62-4.44c-.97-6.96-1.19-15.76-.35-24.16.4-4.03,1.05-7.97,1.97-11.59l-8.71,7.48-.17-4.71c-.48-13.31,1.26-34.56,8.82-45.91l6.94.22h0Z"/>
      <path class="cls-8" d="M157.78,13.2c-3.26,0-6.04-.77-9.22-1.65-3.66-1.01-7.96-2.2-14.12-2.06-11.33.26-22.02,3.47-31.2,9.14-9.12,5.64-16.76,13.72-22.04,23.77-9.34,17.76-7.11,43.67-5.17,66.08v.02c.22,2.55.44,5.06.66,7.84,2.55,32.21,16.72,45.8,28.65,57.26,5.73,5.49,10.99,10.54,14.71,17.03,1.1,1.91,2.11,3.8,3.13,5.71,6.38,11.94,13.4,25.07,34.6,25.07s28.22-13.12,34.6-25.06c1.02-1.91,2.03-3.8,3.13-5.71,3.73-6.48,8.99-11.53,14.71-17.03,11.94-11.45,26.1-25.05,28.65-57.26.24-3,.45-5.41.66-7.85,1.93-22.41,4.17-48.32-5.17-66.08-5.28-10.05-12.92-18.13-22.04-23.77-9.18-5.67-19.87-8.88-31.2-9.14-6.16-.14-10.46,1.05-14.12,2.06-3.18.88-5.96,1.65-9.22,1.65h0ZM151.09,2.41c2.46.68,4.62,1.28,6.69,1.28s4.23-.6,6.69-1.28c4.27-1.18,9.28-2.56,16.83-2.39,13.06.3,25.4,4.01,35.99,10.55,10.56,6.52,19.38,15.85,25.46,27.41,10.65,20.26,8.29,47.64,6.25,71.32-.25,2.88-.49,5.69-.66,7.78-2.84,35.8-18.42,50.75-31.55,63.35-5.24,5.03-10.06,9.65-13.08,14.91-.97,1.69-1.97,3.56-2.98,5.45-7.67,14.35-16.1,30.12-42.96,30.12s-35.29-15.77-42.96-30.12c-1.01-1.89-2.01-3.76-2.98-5.45-3.02-5.26-7.84-9.88-13.08-14.91-13.13-12.6-28.71-27.55-31.55-63.35-.18-2.31-.42-5.02-.65-7.78-2.04-23.68-4.41-51.06,6.25-71.32,6.08-11.56,14.9-20.89,25.46-27.41C108.85,4.02,121.19.31,134.25.01c7.55-.17,12.57,1.21,16.83,2.39h0Z"/>
      <path class="cls-4" d="M157.78,8.44c-6.42,0-11.7-3.95-23.44-3.69-24.34.55-45.96,13.78-57.35,35.43-11.15,21.2-7.01,51.9-5.05,76.51,3.87,48.88,32.91,56.99,44,76.27,8.19,14.24,14.32,33.17,41.84,33.17s33.65-18.93,41.84-33.17c11.09-19.29,40.12-27.39,44-76.27,1.95-24.61,6.1-55.31-5.05-76.51-11.39-21.65-33.01-34.88-57.35-35.43-11.74-.27-17.02,3.69-23.44,3.69h0Z"/>
      <path class="cls-3" d="M202.78,188.31c12.64-16.28,37.29-26.84,40.84-71.61,1.95-24.61,6.1-55.31-5.05-76.51-10.81-20.56-30.85-33.52-53.67-35.25,10.34,2.82,19.97,6.83,26.83,12.29l-4.54,2.18c15.24,5.66,29.57,20.56,34.16,42.35l-7.63-3.3c9.29,15.63,5.58,49.24,5.12,63.82-2.11-2.8-4.43-5.01-6.96-6.61,7.95,35.97-15.75,47.61-29.1,72.65h0Z"/>
      <path class="cls-7" d="M107.93,143.64c8.37,16.08,21.68,25.78,32.47,23.87,7.55-1.34,16.26-8.65,17.86-23.1,1.6,14.44,10.31,21.76,17.86,23.1,10.8,1.91,24.11-7.8,32.47-23.87-7.25,27.25-20.54,36.54-50.33,27-29.8,9.54-43.08.25-50.33-27h0Z"/>
      <path class="cls-7" d="M80.18,44.04c-10.08,19.2-7.14,46.48-5.2,69.35l5.32-6.51c-2.94,10.8-4.31,26.12,1.35,37.59,11.55,23.42,27.77,32.13,35.94,46.34,7.87,13.68,13.49,32.87,39.93,32.87-4.26-1.56-4.7-7.48.27-7.83-17.57-20.66-34.31-48.58-51.89-69.23-7.63-5.41-13.05-19.36-11.21-29.51-5.43,5.35-6.38,11.08-6.88,15.37-2.82-9.12-1.99-34.7,4.18-44.69-4.35,1.47-5.75,2.39-8.69,4.6,2.97-10.04,5.08-16.69,13.54-26.17-3.82.93-7.53,2.11-11.16,3.45,7.14-23.9,22.63-38.75,68.31-25.57-3.83-11.3-21.51-16.57-33.75-15.46,10.69-1.63,23.4-1.42,36.35,2.63-6.7-8.34-19.28-11.63-32.68-9.16,7.43-4.55,19.47-7.01,32.68-3.46-28.99-17.67-60.9-4.14-76.41,25.4h0Z"/>
      <path class="cls-5" d="M157.78,137.91c1.13,2.83,2.26,4.24,3.4,7.06v13.46c0,13.5,23.52,17.18,32.79,6.93,6.08-6.73,10.43-13.91,13.66-21.73,1.92-4.65,9.93-3.72,6.91,4.84-5.38,15.22-14.52,28.03-24.65,36.63-3.22,19.9-14.99,30.88-32.11,30.88s-28.89-10.98-32.11-30.88c-10.13-8.6-19.27-21.41-24.65-36.63-3.02-8.55,4.99-9.49,6.91-4.84,3.22,7.82,7.58,15,13.66,21.73,9.27,10.25,32.79,6.57,32.79-6.93v-13.46c1.13-2.83,2.26-4.24,3.4-7.06h0Z"/>
      <path class="cls-1" d="M157.78,210.76c-10.31,0-18.44-5.18-23.53-14.9,2.04-11.37,12.25-18.91,23.53-18.91s21.49,7.54,23.53,18.91c-5.08,9.71-13.22,14.9-23.53,14.9h0Z"/>
      <path class="cls-5" d="M119.72,57.14c9.22,0,16.26,9.8,15.74,21.88-.52,12.09-8.42,21.88-17.63,21.88s-16.26-9.8-15.74-21.88c.52-12.09,8.42-21.88,17.63-21.88h0Z"/>
      <path class="cls-2" d="M122.71,66.05c3.61,0,6.37,3.84,6.16,8.57-.21,4.73-3.3,8.57-6.91,8.57s-6.37-3.84-6.16-8.57c.21-4.73,3.3-8.57,6.91-8.57h0Z"/>
      <path class="cls-5" d="M195.84,57.14c-9.22,0-16.26,9.8-15.74,21.88.52,12.09,8.42,21.88,17.63,21.88s16.26-9.8,15.74-21.88c-.52-12.09-8.42-21.88-17.63-21.88h0Z"/>
      <path class="cls-2" d="M192.86,66.05c-3.61,0-6.37,3.84-6.16,8.57.21,4.73,3.3,8.57,6.91,8.57s6.37-3.84,6.16-8.57c-.21-4.73-3.3-8.57-6.91-8.57h0Z"/>
      <path class="cls-6" d="M157.78,187.97c9.07,0,16.43,2.23,16.43,8.14s-7.35,10.69-16.43,10.69-16.43-4.79-16.43-10.69c0-5.18,5.67-7.54,13.19-8.03,1.05-.07,2.13-.1,3.23-.1h0Z"/>
      <path class="cls-5" d="M96.19,49.96c12-9.32,29.02-10.81,41.81-6.97,1.65-4.49.96-12.58-2.91-15.51-16.14-1.44-34.36,6.46-38.9,22.48h0Z"/>
      <path class="cls-5" d="M219.38,49.96c-12-9.32-29.02-10.81-41.81-6.97-1.65-4.49-.96-12.58,2.91-15.51,16.14-1.44,34.36,6.46,38.9,22.48h0Z"/>
      <path class="cls-7" d="M145.68,61.36c8.45,32.23,19.74,70.53-23.1,67.35,12.31-11.34,22.45-31.29,23.1-67.35h0Z"/>
      <path class="cls-5" d="M157.78,114.95c14.18,0,24.9,3.29,25.27,9.52.81,13.69-14.57,21.97-25.27,21.52-10.7.45-26.08-7.84-25.27-21.52.37-6.23,11.09-9.52,25.27-9.52h0Z"/>
      <path class="cls-2" d="M169.61,121.62c4.03,0,7.07.81,7.17,2.34.23,3.37-4.14,5.41-7.17,5.3-3.04.11-7.4-1.93-7.17-5.3.1-1.53,3.15-2.34,7.17-2.34h0Z"/>
      <path class="cls-7" d="M140.1,154.05c1.11-.36,2.56.61,3.24,2.15.68,1.54.33,3.08-.78,3.44-1.11.36-2.56-.61-3.24-2.15-.68-1.54-.33-3.08.78-3.44h0Z"/>
      <path class="cls-7" d="M130.5,156.65c1.11-.36,2.56.61,3.24,2.15.68,1.54.33,3.08-.78,3.44-1.11.35-2.56-.61-3.24-2.15-.68-1.54-.33-3.08.78-3.44h0Z"/>
      <path class="cls-7" d="M130.05,146.89c1.11-.35,2.56.61,3.24,2.15.68,1.54.33,3.08-.78,3.44-1.11.36-2.56-.61-3.24-2.15-.68-1.54-.33-3.08.78-3.44h0Z"/>
      <path class="cls-7" d="M174.04,154.05c-1.11-.36-2.56.61-3.24,2.15-.68,1.54-.33,3.08.78,3.44,1.11.36,2.56-.61,3.24-2.15.68-1.54.33-3.08-.78-3.44h0Z"/>
      <path class="cls-7" d="M183.64,156.65c-1.11-.36-2.56.61-3.24,2.15-.68,1.54-.33,3.08.78,3.44,1.11.35,2.56-.61,3.24-2.15.68-1.54.33-3.08-.78-3.44h0Z"/>
      <path class="cls-7" d="M184.08,146.89c-1.11-.35-2.56.61-3.24,2.15-.68,1.54-.33,3.08.78,3.44,1.11.36,2.56-.61,3.24-2.15.68-1.54.33-3.08-.78-3.44h0Z"/>
    </g>
  </g>
</svg>