<svg id="Layer_1" data-name="Layer 1" xmlns="http://www.w3.org/2000/svg" viewBox="0 0 992.11 1080"><defs><style>.cls-1{fill:#f7b733;}</style></defs><path class="cls-1" d="M328.55,1080c94.29-63.29,151.85-172.37,157.37-275.69,5.7-106.77-42.6-214.91-129.27-289.43-52.31-45-118.1-77.26-188.47-94a483.31,483.31,0,0,0-108-13.16c-18-.14-33.58-.6-24,17.28,9,16.91,17.54,33.87,24.53,51.54A406.19,406.19,0,0,1,87.27,586Q88.16,595,88.62,604c1.91,36.67-1.08,74.53,13.29,109,16.21,38.85,53.36,68.86,95.45,87,24.1,10.38,49.92,17.26,76.12,22,7,1.27,71.89,13.55,74.46,6.72,0,0,67.26-205.62-210.9-364.88,0,0,179,17.14,254.22,179.42,56.37,121.57,45.7,270.22-24.48,385.86A305.16,305.16,0,0,1,328.55,1080Z" transform="translate(-33.21)"/><path class="cls-1" d="M730,1080c-94.28-63.29-151.85-172.37-157.36-275.69-5.7-106.77,42.6-214.91,129.27-289.43,52.31-45,118.09-77.26,188.46-94a483.38,483.38,0,0,1,108-13.16c18-.14,33.59-.6,24.06,17.28-9,16.91-17.55,33.87-24.53,51.54A406.21,406.21,0,0,0,971.25,586q-.87,8.94-1.34,17.93c-1.92,36.67,1.08,74.53-13.3,109-16.21,38.85-53.35,68.86-95.45,87-24.1,10.38-49.91,17.26-76.11,22-7,1.27-71.89,13.55-74.47,6.72,0,0-67.26-205.62,210.91-364.88,0,0-179,17.14-254.23,179.42-56.36,121.57-45.69,270.22,24.49,385.86A305.64,305.64,0,0,0,730,1080Z" transform="translate(-33.21)"/><ellipse class="cls-1" cx="496.05" cy="383.71" rx="138.8" ry="122.72"/><path class="cls-1" d="M529.37,0c-93.21,83.74-19.17,166.28-3.21,182.14l3.07-100.58L532,182.43C636.77,95.19,529.37,0,529.37,0Z" transform="translate(-33.21)"/><path class="cls-1" d="M801.7,89.45c-93.4,22.84-80.68,98.83-77.15,114L768,140.92,728.1,205.5C830.27,184.19,801.7,89.45,801.7,89.45Z" transform="translate(-33.21)"/><path class="cls-1" d="M1025.32,253.38c-128.63-29.5-172.46,68.46-180,88.61l100.05-47.93-97.43,52.52C985.77,383.21,1025.32,253.38,1025.32,253.38Z" transform="translate(-33.21)"/><path class="cls-1" d="M258.87,89.31c-23.39,82.92,54.29,111.17,70.27,116.05l-38-64.5,41.65,62.8C361.82,114.8,258.87,89.31,258.87,89.31Z" transform="translate(-33.21)"/><path class="cls-1" d="M33.21,253.05C68.63,366.29,186.5,350.87,210,346.59l-97-52.65,100.16,48.34C180.15,218.41,33.21,253.05,33.21,253.05Z" transform="translate(-33.21)"/></svg>