<?xml version="1.0" encoding="utf-8"?>
<!-- Generator: Adobe Illustrator 26.0.1, SVG Export Plug-In . SVG Version: 6.00 Build 0)  -->
<svg version="1.1" xmlns="http://www.w3.org/2000/svg" xmlns:xlink="http://www.w3.org/1999/xlink" x="0px" y="0px"
	 viewBox="0 0 500 500" style="enable-background:new 0 0 500 500;" xml:space="preserve">
<style type="text/css">
	.st0{fill:#1A0A5D;}
	.st1{fill:#4EB0F9;}
	.st2{fill:#2FD8D8;}
	.st3{fill:#FFFFFF;}
	.st4{fill:#2555EF;}
	.st5{fill:#5C1CB2;}
	.st6{fill:#FF00C1;}
	.st7{fill:#F4AC24;}
	.st8{fill:#FF0000;}
	.st9{fill:url(#SVGID_1_);}
	.st10{opacity:0.33;fill:#FFFFFF;}
	.st11{opacity:0.5;fill:#FFFFFF;}
	.st12{fill:url(#SVGID_00000081625742623514474670000017647720268331796129_);}
	.st13{opacity:0.6;fill:#FFFFFF;}
	.st14{fill:url(#SVGID_00000090981400256734891790000001336399993830297994_);}
	.st15{fill:url(#SVGID_00000164503615879423708070000010929838999682198151_);}
	.st16{fill:url(#SVGID_00000109746390123151294970000002218533828931032240_);}
	.st17{fill:url(#SVGID_00000139982911105297827720000007592442934549844644_);}
	.st18{fill:url(#SVGID_00000058546814672481365740000011242270691332683944_);}
	.st19{fill:url(#SVGID_00000170263039064144398040000003072421896737232286_);}
	.st20{fill:url(#SVGID_00000000222559514016044810000005735288598467925662_);}
</style>
<g id="BACKGROUND">
	<g>
		<path class="st8" d="M268.73,335.68c0.25,0,0.48,0,0.73-0.01v0.01H268.73z"/>
		<g>
			<g>
				<linearGradient id="SVGID_1_" gradientUnits="userSpaceOnUse" x1="160.6286" y1="206.1027" x2="365.3698" y2="206.1027">
					<stop  offset="0" style="stop-color:#4EB0F9"/>
					<stop  offset="1" style="stop-color:#2555EF"/>
				</linearGradient>
				<path class="st9" d="M265.29,107.12H160.63v197.97h0c20.03,0,36.26-16.23,36.26-36.26V143.38h69.5
					c34.9,0,63.24,28.66,62.71,63.69c-0.52,34.42-29.24,61.76-63.66,61.76h-45.85l-0.37,0.76v35.5h47.17
					c54.77,0,99.29-44.71,98.98-99.56C365.05,150.91,319.92,107.12,265.29,107.12z"/>
			</g>
			<g>
				<path class="st10" d="M265.29,107.12H160.63v36.27h36.26v-0.01h69.5c1.68,0,3.34,0.06,4.99,0.2
					c45.95,2.75,84.03,36.46,92.32,80.69c1.14-6.06,1.71-12.34,1.68-18.74C365.05,150.91,319.92,107.12,265.29,107.12z"/>
			</g>
			<g>
				<path class="st11" d="M265.29,107.12H160.63v2.22h104.66c54.41,0,99.4,43.45,100.07,97.76c0.01-0.52,0.01-1.04,0.01-1.57
					C365.05,150.91,319.92,107.12,265.29,107.12z"/>
			</g>
		</g>
		
			<linearGradient id="SVGID_00000029042363771512045860000007538706093130136198_" gradientUnits="userSpaceOnUse" x1="213.6572" y1="206.1027" x2="310.8571" y2="206.1027">
			<stop  offset="0" style="stop-color:#5C1CB2"/>
			<stop  offset="0.0922" style="stop-color:#7118B4"/>
			<stop  offset="0.2837" style="stop-color:#A90FB9"/>
			<stop  offset="0.5494" style="stop-color:#FF00C1"/>
			<stop  offset="0.6215" style="stop-color:#FE15AD"/>
			<stop  offset="0.7714" style="stop-color:#FA4D7B"/>
			<stop  offset="0.9846" style="stop-color:#F4A52A"/>
			<stop  offset="1" style="stop-color:#F4AC24"/>
		</linearGradient>
		<path style="fill:url(#SVGID_00000029042363771512045860000007538706093130136198_);" d="M266.15,250.04
			c0.02,0.01,0.03,0.01,0.05,0c23.63-0.75,42.55-20.13,42.55-43.94c0-3.12-0.33-6.17-0.95-9.1h-70.57v-14.9h34.29
			c4.11,0,7.84,1.67,10.53,4.36c1.22,1.22,2.24,2.66,2.97,4.26h20.94c-6.42-16.16-21.28-28.04-39.77-28.56h-0.05
			c-0.46-0.02-0.92-0.02-1.38-0.02h-47.51v43.94h0v9.51h69.15c0,4.11-1.67,7.84-4.36,10.53c-2.7,2.7-6.42,4.36-10.53,4.36h-54.26
			v19.58h47.51C265.23,250.07,265.69,250.07,266.15,250.04z"/>
		<path class="st10" d="M305.92,190.72c0,0-14.52-13.77-30.55-14.2c-16.03-0.43-58.12,0-58.12,0v-14.39h47.51
			c15.79,0,32.94,8.46,41.2,28.58L305.92,190.72z"/>
		<path class="st10" d="M305.97,221.49c0,0-14.57,13.77-30.6,14.2c-16.03,0.43-58.12,0-58.12,0v14.39h47.51
			C280.56,250.07,297.71,241.62,305.97,221.49L305.97,221.49z"/>
		<path class="st13" d="M305.97,190.72c-0.01,0-0.02,0-0.04,0c-0.77-1.08-2.35-2.84-2.72-3.27c-2.39-2.69-4.9-5.3-7.55-7.73
			c-5.29-4.83-11.13-9.58-18.05-11.8c-8-2.55-16.87-1.62-25.14-1.72c-7.44-0.09-14.88-0.17-22.32-0.23
			c-0.71-0.01-12.89-0.09-12.89-0.09c0,0,0-3.75,0-3.75h47.51C280.67,162.13,297.71,170.59,305.97,190.72z"/>
		<path class="st13" d="M305.97,221.49c-0.01,0-0.02,0-0.04,0c-0.77,1.08-2.35,2.84-2.72,3.27c-2.39,2.69-4.9,5.3-7.55,7.73
			c-5.29,4.83-11.13,9.58-18.05,11.8c-8,2.55-16.87,1.62-25.14,1.72c-7.44,0.09-14.88,0.17-22.32,0.23
			c-0.71,0.01-12.89,0.09-12.89,0.09c0,0,0,3.75,0,3.75h47.51C280.67,250.07,297.71,241.62,305.97,221.49z"/>
		<g>
			<path class="st3" d="M146.1,338.59h8.57c6.36,0,10.7,3.92,10.7,9.8s-4.34,9.8-10.7,9.8h-8.57V338.59z M154.5,355.11
				c4.37,0,7.2-2.66,7.2-6.72c0-4.06-2.83-6.72-7.2-6.72h-4.76v13.44H154.5z"/>
			<path class="st3" d="M182.89,351.84h-11.73c0.42,2.18,2.24,3.58,4.84,3.58c1.68,0,3-0.53,4.06-1.62l1.88,2.16
				c-1.34,1.6-3.44,2.44-6.02,2.44c-5.01,0-8.26-3.22-8.26-7.67c0-4.45,3.28-7.64,7.73-7.64c4.37,0,7.56,3.05,7.56,7.73
				C182.95,351.08,182.92,351.5,182.89,351.84z M171.13,349.51h8.48c-0.28-2.16-1.93-3.64-4.23-3.64
				C173.12,345.87,171.47,347.33,171.13,349.51z"/>
			<path class="st3" d="M184.6,356.71l1.34-2.66c1.32,0.87,3.33,1.48,5.21,1.48c2.21,0,3.14-0.62,3.14-1.65
				c0-2.86-9.24-0.17-9.24-6.13c0-2.83,2.55-4.68,6.58-4.68c1.99,0,4.26,0.48,5.6,1.29l-1.34,2.66c-1.43-0.84-2.86-1.12-4.28-1.12
				c-2.13,0-3.14,0.7-3.14,1.68c0,3.02,9.24,0.34,9.24,6.19c0,2.8-2.58,4.62-6.78,4.62C188.43,358.39,185.94,357.66,184.6,356.71z"
				/>
			<path class="st3" d="M200.25,338.68c0-1.18,0.95-2.1,2.24-2.1s2.24,0.87,2.24,2.02c0,1.23-0.92,2.18-2.24,2.18
				C201.2,340.78,200.25,339.85,200.25,338.68z M200.73,343.24h3.5v14.95h-3.5V343.24z"/>
			<path class="st3" d="M223.66,343.24v12.68c0,5.43-2.83,7.9-8.06,7.9c-2.8,0-5.57-0.73-7.28-2.13l1.57-2.63
				c1.32,1.09,3.44,1.79,5.52,1.79c3.3,0,4.76-1.51,4.76-4.54v-0.78c-1.23,1.34-3,1.99-5.01,1.99c-4.28,0-7.56-2.91-7.56-7.25
				s3.28-7.2,7.56-7.2c2.1,0,3.95,0.67,5.18,2.16v-1.99H223.66z M220.21,350.27c0-2.52-1.9-4.23-4.54-4.23
				c-2.66,0-4.56,1.71-4.56,4.23c0,2.55,1.9,4.28,4.56,4.28C218.31,354.55,220.21,352.82,220.21,350.27z"/>
			<path class="st3" d="M242.98,349.62v8.57h-3.5v-8.12c0-2.66-1.32-3.95-3.56-3.95c-2.49,0-4.17,1.51-4.17,4.51v7.56h-3.5v-14.95
				h3.33v1.93c1.15-1.37,2.97-2.1,5.15-2.1C240.32,343.07,242.98,345.12,242.98,349.62z"/>
			<path class="st3" d="M278.48,343.24l-5.52,14.95h-3.36l-3.86-10.3l-3.92,10.3h-3.36l-5.49-14.95h3.3l3.95,11.03l4.12-11.03h2.94
				l4.03,11.09l4.06-11.09H278.48z"/>
			<path class="st3" d="M280.41,338.68c0-1.18,0.95-2.1,2.24-2.1s2.24,0.87,2.24,2.02c0,1.23-0.92,2.18-2.24,2.18
				C281.36,340.78,280.41,339.85,280.41,338.68z M280.89,343.24h3.5v14.95h-3.5V343.24z"/>
			<path class="st3" d="M297.97,357.38c-0.84,0.67-2.1,1.01-3.36,1.01c-3.28,0-5.15-1.74-5.15-5.04v-7.2h-2.46v-2.8h2.46v-3.42h3.5
				v3.42h4v2.8h-4v7.11c0,1.46,0.73,2.24,2.07,2.24c0.73,0,1.43-0.2,1.96-0.62L297.97,357.38z"/>
			<path class="st3" d="M315.58,349.62v8.57h-3.5v-8.12c0-2.66-1.32-3.95-3.56-3.95c-2.49,0-4.17,1.51-4.17,4.51v7.56h-3.5v-20.78
				h3.5v7.56c1.15-1.23,2.91-1.9,4.98-1.9C312.92,343.07,315.58,345.12,315.58,349.62z"/>
			<path class="st3" d="M326.44,356.12l1.26-2.83c1.57,1.26,4.06,2.16,6.47,2.16c3.05,0,4.34-1.09,4.34-2.55
				c0-4.23-11.65-1.46-11.65-8.74c0-3.16,2.52-5.85,7.9-5.85c2.35,0,4.82,0.62,6.52,1.74l-1.15,2.83c-1.76-1.04-3.7-1.54-5.4-1.54
				c-3.02,0-4.26,1.18-4.26,2.66c0,4.17,11.62,1.46,11.62,8.65c0,3.14-2.55,5.82-7.92,5.82
				C331.12,358.47,328.07,357.52,326.44,356.12z"/>
			<path class="st3" d="M345.71,338.59h3.64v19.6h-3.64V338.59z"/>
			<path class="st3" d="M354.64,338.59h8.57c6.36,0,10.7,3.92,10.7,9.8s-4.34,9.8-10.7,9.8h-8.57V338.59z M363.04,355.11
				c4.37,0,7.2-2.66,7.2-6.72c0-4.06-2.83-6.72-7.2-6.72h-4.76v13.44H363.04z"/>
		</g>
		<g>
			<path class="st7" d="M171.44,379.94c0.78,0.4,1.38,0.97,1.81,1.71s0.64,1.61,0.64,2.6s-0.21,1.85-0.64,2.58
				c-0.42,0.73-1.03,1.29-1.81,1.67c-0.78,0.39-1.69,0.58-2.72,0.58h-3.18v-9.73h3.18C169.76,379.34,170.67,379.54,171.44,379.94z
				 M171.34,386.85c0.61-0.62,0.91-1.48,0.91-2.6c0-1.13-0.3-2.01-0.91-2.65c-0.61-0.63-1.48-0.95-2.62-0.95h-1.58v7.13h1.58
				C169.86,387.77,170.73,387.46,171.34,386.85z"/>
			<path class="st7" d="M182.48,385.81h-5.89c0.05,0.62,0.28,1.11,0.69,1.48c0.41,0.37,0.91,0.56,1.51,0.56
				c0.86,0,1.46-0.36,1.82-1.08h1.72c-0.23,0.71-0.66,1.29-1.27,1.74c-0.61,0.45-1.37,0.68-2.27,0.68c-0.74,0-1.4-0.17-1.98-0.5
				c-0.58-0.33-1.04-0.8-1.37-1.4c-0.33-0.6-0.5-1.3-0.5-2.09c0-0.79,0.16-1.49,0.48-2.09c0.32-0.6,0.77-1.07,1.36-1.39
				c0.58-0.33,1.25-0.49,2.01-0.49c0.73,0,1.38,0.16,1.95,0.48s1.01,0.76,1.33,1.34c0.32,0.57,0.48,1.23,0.48,1.98
				C182.54,385.32,182.52,385.58,182.48,385.81z M180.87,384.52c-0.01-0.59-0.22-1.06-0.63-1.41c-0.41-0.35-0.92-0.53-1.53-0.53
				c-0.55,0-1.02,0.17-1.41,0.53c-0.39,0.35-0.62,0.82-0.7,1.42H180.87z"/>
			<path class="st7" d="M185.28,388.87c-0.48-0.22-0.86-0.52-1.14-0.9c-0.28-0.38-0.43-0.8-0.45-1.27h1.65
				c0.03,0.33,0.18,0.6,0.47,0.82s0.64,0.33,1.07,0.33c0.45,0,0.8-0.09,1.04-0.26c0.25-0.17,0.37-0.39,0.37-0.67
				c0-0.29-0.14-0.5-0.41-0.64c-0.28-0.14-0.71-0.29-1.31-0.46c-0.58-0.16-1.05-0.31-1.41-0.46c-0.36-0.15-0.68-0.38-0.95-0.69
				c-0.27-0.31-0.4-0.71-0.4-1.22c0-0.41,0.12-0.79,0.36-1.13c0.24-0.34,0.59-0.61,1.04-0.8c0.45-0.2,0.97-0.29,1.56-0.29
				c0.88,0,1.58,0.22,2.12,0.67c0.54,0.44,0.82,1.05,0.86,1.81h-1.6c-0.03-0.34-0.17-0.62-0.42-0.83c-0.25-0.21-0.59-0.31-1.02-0.31
				c-0.42,0-0.74,0.08-0.97,0.24c-0.22,0.16-0.34,0.37-0.34,0.63c0,0.21,0.07,0.38,0.22,0.52c0.15,0.14,0.33,0.25,0.55,0.33
				c0.21,0.08,0.53,0.18,0.95,0.3c0.56,0.15,1.02,0.3,1.38,0.46c0.36,0.15,0.67,0.38,0.93,0.68s0.4,0.7,0.41,1.19
				c0,0.44-0.12,0.83-0.36,1.18c-0.24,0.35-0.59,0.62-1.03,0.81c-0.44,0.2-0.96,0.29-1.56,0.29
				C186.3,389.2,185.76,389.09,185.28,388.87z"/>
			<path class="st7" d="M191.67,380.04c-0.2-0.2-0.29-0.44-0.29-0.73s0.1-0.53,0.29-0.73c0.2-0.2,0.44-0.29,0.73-0.29
				c0.28,0,0.52,0.1,0.71,0.29c0.2,0.2,0.29,0.44,0.29,0.73s-0.1,0.53-0.29,0.73c-0.2,0.2-0.43,0.29-0.71,0.29
				C192.11,380.34,191.86,380.24,191.67,380.04z M193.18,381.36v7.71h-1.6v-7.71H193.18z"/>
			<path class="st7" d="M199.98,381.59c0.46,0.24,0.82,0.54,1.08,0.89v-1.12h1.61v7.84c0,0.71-0.15,1.34-0.45,1.9
				c-0.3,0.55-0.73,0.99-1.29,1.31c-0.56,0.32-1.24,0.48-2.02,0.48c-1.05,0-1.91-0.24-2.6-0.73c-0.69-0.49-1.08-1.16-1.18-2h1.58
				c0.12,0.4,0.38,0.73,0.78,0.97s0.87,0.37,1.42,0.37c0.64,0,1.16-0.2,1.56-0.59c0.4-0.39,0.6-0.96,0.6-1.71v-1.29
				c-0.27,0.36-0.64,0.67-1.1,0.92s-0.99,0.37-1.57,0.37c-0.67,0-1.29-0.17-1.84-0.51s-0.99-0.82-1.32-1.43
				c-0.32-0.61-0.48-1.3-0.48-2.08c0-0.78,0.16-1.46,0.48-2.06c0.32-0.6,0.76-1.06,1.32-1.39s1.17-0.5,1.84-0.5
				C198.98,381.23,199.51,381.35,199.98,381.59z M200.73,383.82c-0.22-0.39-0.51-0.69-0.86-0.9c-0.35-0.21-0.74-0.31-1.15-0.31
				c-0.41,0-0.79,0.1-1.15,0.3c-0.35,0.2-0.64,0.5-0.86,0.88c-0.22,0.39-0.33,0.85-0.33,1.38c0,0.53,0.11,1,0.33,1.4
				s0.51,0.71,0.87,0.92s0.74,0.32,1.14,0.32c0.41,0,0.79-0.1,1.15-0.31c0.35-0.21,0.64-0.51,0.86-0.9s0.33-0.86,0.33-1.39
				S200.95,384.22,200.73,383.82z"/>
			<path class="st7" d="M210.29,381.61c0.48,0.25,0.86,0.62,1.13,1.12c0.27,0.49,0.41,1.09,0.41,1.79v4.55h-1.58v-4.31
				c0-0.69-0.17-1.22-0.52-1.59c-0.35-0.37-0.82-0.55-1.41-0.55s-1.07,0.18-1.42,0.55c-0.35,0.37-0.52,0.9-0.52,1.59v4.31h-1.6
				v-7.71h1.6v0.88c0.26-0.32,0.6-0.56,1-0.74c0.41-0.18,0.84-0.27,1.29-0.27C209.27,381.23,209.81,381.36,210.29,381.61z"/>
			<path class="st7" d="M219.36,382.66v4.27c0,0.29,0.07,0.5,0.2,0.62c0.13,0.13,0.37,0.19,0.69,0.19h0.98v1.33h-1.26
				c-0.72,0-1.27-0.17-1.65-0.5s-0.57-0.88-0.57-1.64v-4.27h-0.91v-1.3h0.91v-1.92h1.61v1.92h1.88v1.3H219.36z"/>
			<path class="st7" d="M228.27,381.61c0.46,0.25,0.83,0.62,1.09,1.12c0.27,0.49,0.4,1.09,0.4,1.79v4.55h-1.58v-4.31
				c0-0.69-0.17-1.22-0.52-1.59c-0.35-0.37-0.82-0.55-1.41-0.55s-1.07,0.18-1.42,0.55c-0.35,0.37-0.52,0.9-0.52,1.59v4.31h-1.6
				v-10.36h1.6v3.54c0.27-0.33,0.61-0.58,1.03-0.76c0.42-0.18,0.87-0.27,1.37-0.27C227.28,381.23,227.81,381.36,228.27,381.61z"/>
			<path class="st7" d="M231.74,383.12c0.32-0.6,0.76-1.06,1.32-1.39s1.17-0.5,1.84-0.5c0.61,0,1.14,0.12,1.59,0.36
				c0.45,0.24,0.81,0.54,1.08,0.89v-1.12h1.61v7.71h-1.61v-1.15c-0.27,0.36-0.64,0.67-1.11,0.91c-0.47,0.24-1,0.36-1.6,0.36
				c-0.66,0-1.27-0.17-1.82-0.51c-0.55-0.34-0.99-0.82-1.31-1.43c-0.32-0.61-0.48-1.3-0.48-2.08
				C231.26,384.41,231.42,383.72,231.74,383.12z M237.24,383.82c-0.22-0.39-0.51-0.69-0.86-0.9c-0.35-0.21-0.74-0.31-1.15-0.31
				c-0.41,0-0.79,0.1-1.15,0.3c-0.35,0.2-0.64,0.5-0.86,0.88c-0.22,0.39-0.33,0.85-0.33,1.38c0,0.53,0.11,1,0.33,1.4
				s0.51,0.71,0.87,0.92s0.74,0.32,1.14,0.32c0.41,0,0.79-0.1,1.15-0.31c0.35-0.21,0.64-0.51,0.86-0.9s0.33-0.86,0.33-1.39
				S237.46,384.22,237.24,383.82z"/>
			<path class="st7" d="M243.14,382.66v4.27c0,0.29,0.07,0.5,0.2,0.62c0.13,0.13,0.37,0.19,0.69,0.19h0.98v1.33h-1.26
				c-0.72,0-1.27-0.17-1.65-0.5s-0.57-0.88-0.57-1.64v-4.27h-0.91v-1.3h0.91v-1.92h1.61v1.92h1.88v1.3H243.14z"/>
			<path class="st7" d="M251.99,382.66v4.27c0,0.29,0.07,0.5,0.2,0.62c0.13,0.13,0.37,0.19,0.69,0.19h0.98v1.33h-1.26
				c-0.72,0-1.27-0.17-1.65-0.5s-0.57-0.88-0.57-1.64v-4.27h-0.91v-1.3h0.91v-1.92h1.61v1.92h1.88v1.3H251.99z"/>
			<path class="st7" d="M262.35,385.81h-5.89c0.05,0.62,0.28,1.11,0.69,1.48c0.41,0.37,0.91,0.56,1.51,0.56
				c0.86,0,1.46-0.36,1.82-1.08h1.72c-0.23,0.71-0.66,1.29-1.27,1.74c-0.61,0.45-1.37,0.68-2.27,0.68c-0.74,0-1.4-0.17-1.98-0.5
				c-0.58-0.33-1.04-0.8-1.37-1.4c-0.33-0.6-0.5-1.3-0.5-2.09c0-0.79,0.16-1.49,0.48-2.09c0.32-0.6,0.77-1.07,1.36-1.39
				c0.58-0.33,1.25-0.49,2.01-0.49c0.73,0,1.38,0.16,1.95,0.48s1.01,0.76,1.33,1.34c0.32,0.57,0.48,1.23,0.48,1.98
				C262.41,385.32,262.39,385.58,262.35,385.81z M260.74,384.52c-0.01-0.59-0.22-1.06-0.63-1.41c-0.41-0.35-0.92-0.53-1.53-0.53
				c-0.55,0-1.02,0.17-1.41,0.53c-0.39,0.35-0.62,0.82-0.7,1.42H260.74z"/>
			<path class="st7" d="M265.57,378.71v10.36h-1.6v-10.36H265.57z"/>
			<path class="st7" d="M269.27,378.71v10.36h-1.6v-10.36H269.27z"/>
			<path class="st7" d="M272.54,388.87c-0.48-0.22-0.86-0.52-1.14-0.9c-0.28-0.38-0.43-0.8-0.45-1.27h1.65
				c0.03,0.33,0.18,0.6,0.47,0.82s0.64,0.33,1.07,0.33c0.45,0,0.8-0.09,1.04-0.26c0.25-0.17,0.37-0.39,0.37-0.67
				c0-0.29-0.14-0.5-0.41-0.64c-0.28-0.14-0.71-0.29-1.31-0.46c-0.58-0.16-1.05-0.31-1.41-0.46c-0.36-0.15-0.68-0.38-0.95-0.69
				c-0.27-0.31-0.4-0.71-0.4-1.22c0-0.41,0.12-0.79,0.36-1.13c0.24-0.34,0.59-0.61,1.04-0.8c0.45-0.2,0.97-0.29,1.56-0.29
				c0.88,0,1.58,0.22,2.12,0.67c0.54,0.44,0.82,1.05,0.86,1.81h-1.6c-0.03-0.34-0.17-0.62-0.42-0.83c-0.25-0.21-0.59-0.31-1.02-0.31
				c-0.42,0-0.74,0.08-0.97,0.24c-0.22,0.16-0.34,0.37-0.34,0.63c0,0.21,0.07,0.38,0.22,0.52c0.15,0.14,0.33,0.25,0.55,0.33
				c0.21,0.08,0.53,0.18,0.95,0.3c0.56,0.15,1.02,0.3,1.38,0.46c0.36,0.15,0.67,0.38,0.93,0.68s0.4,0.7,0.41,1.19
				c0,0.44-0.12,0.83-0.36,1.18c-0.24,0.35-0.59,0.62-1.03,0.81c-0.44,0.2-0.96,0.29-1.56,0.29
				C273.56,389.2,273.02,389.09,272.54,388.87z"/>
			<path class="st7" d="M289.43,381.36l-4.73,11.34h-1.65l1.57-3.75l-3.04-7.59h1.78l2.17,5.88l2.25-5.88H289.43z"/>
			<path class="st7" d="M292,388.7c-0.59-0.33-1.05-0.8-1.39-1.4c-0.34-0.6-0.5-1.3-0.5-2.09c0-0.78,0.17-1.48,0.52-2.09
				c0.35-0.61,0.82-1.07,1.41-1.4c0.6-0.33,1.26-0.49,2-0.49s1.4,0.16,2,0.49c0.6,0.33,1.07,0.79,1.41,1.4
				c0.35,0.61,0.52,1.3,0.52,2.09s-0.18,1.48-0.53,2.09c-0.35,0.61-0.84,1.08-1.45,1.41s-1.29,0.5-2.02,0.5
				C293.25,389.2,292.59,389.03,292,388.7z M295.13,387.52c0.36-0.2,0.65-0.49,0.88-0.88c0.22-0.39,0.34-0.87,0.34-1.43
				c0-0.56-0.11-1.03-0.32-1.42c-0.21-0.39-0.5-0.68-0.85-0.88c-0.35-0.2-0.74-0.29-1.15-0.29s-0.79,0.1-1.14,0.29
				s-0.63,0.49-0.83,0.88c-0.21,0.39-0.31,0.86-0.31,1.42c0,0.83,0.21,1.47,0.64,1.92c0.42,0.45,0.96,0.68,1.6,0.68
				C294.39,387.81,294.77,387.72,295.13,387.52z"/>
			<path class="st7" d="M306.55,381.36v7.71h-1.6v-0.91c-0.25,0.32-0.58,0.57-0.99,0.75c-0.41,0.18-0.84,0.27-1.29,0.27
				c-0.61,0-1.15-0.13-1.63-0.38c-0.48-0.25-0.86-0.63-1.13-1.12c-0.28-0.5-0.41-1.09-0.41-1.79v-4.54h1.58v4.3
				c0,0.69,0.17,1.22,0.52,1.59c0.35,0.37,0.82,0.55,1.41,0.55c0.6,0,1.07-0.18,1.42-0.55c0.35-0.37,0.52-0.9,0.52-1.59v-4.3H306.55
				z"/>
			<path class="st7" d="M311.18,381.56c0.39-0.22,0.85-0.33,1.38-0.33v1.65h-0.41c-0.62,0-1.1,0.16-1.42,0.48
				c-0.32,0.32-0.48,0.87-0.48,1.65v4.06h-1.6v-7.71h1.6v1.12C310.48,382.09,310.79,381.78,311.18,381.56z"/>
			<path class="st7" d="M318.83,388.87c-0.48-0.22-0.86-0.52-1.14-0.9c-0.28-0.38-0.43-0.8-0.45-1.27h1.65
				c0.03,0.33,0.18,0.6,0.47,0.82s0.64,0.33,1.07,0.33c0.45,0,0.8-0.09,1.04-0.26c0.25-0.17,0.37-0.39,0.37-0.67
				c0-0.29-0.14-0.5-0.41-0.64c-0.28-0.14-0.71-0.29-1.31-0.46c-0.58-0.16-1.05-0.31-1.41-0.46c-0.36-0.15-0.68-0.38-0.95-0.69
				c-0.27-0.31-0.4-0.71-0.4-1.22c0-0.41,0.12-0.79,0.36-1.13c0.24-0.34,0.59-0.61,1.04-0.8c0.45-0.2,0.97-0.29,1.56-0.29
				c0.88,0,1.58,0.22,2.12,0.67c0.54,0.44,0.82,1.05,0.86,1.81h-1.6c-0.03-0.34-0.17-0.62-0.42-0.83c-0.25-0.21-0.59-0.31-1.02-0.31
				c-0.42,0-0.74,0.08-0.97,0.24c-0.22,0.16-0.34,0.37-0.34,0.63c0,0.21,0.07,0.38,0.22,0.52c0.15,0.14,0.33,0.25,0.55,0.33
				c0.21,0.08,0.53,0.18,0.95,0.3c0.56,0.15,1.02,0.3,1.38,0.46c0.36,0.15,0.67,0.38,0.93,0.68s0.4,0.7,0.41,1.19
				c0,0.44-0.12,0.83-0.36,1.18c-0.24,0.35-0.59,0.62-1.03,0.81c-0.44,0.2-0.96,0.29-1.56,0.29
				C319.86,389.2,319.31,389.09,318.83,388.87z"/>
			<path class="st7" d="M327,382.66v4.27c0,0.29,0.07,0.5,0.2,0.62c0.13,0.13,0.37,0.19,0.69,0.19h0.98v1.33h-1.26
				c-0.72,0-1.27-0.17-1.65-0.5s-0.57-0.88-0.57-1.64v-4.27h-0.91v-1.3h0.91v-1.92H327v1.92h1.88v1.3H327z"/>
			<path class="st7" d="M331.72,388.7c-0.59-0.33-1.05-0.8-1.39-1.4c-0.34-0.6-0.5-1.3-0.5-2.09c0-0.78,0.17-1.48,0.52-2.09
				c0.35-0.61,0.82-1.07,1.41-1.4c0.6-0.33,1.26-0.49,2-0.49s1.4,0.16,2,0.49c0.6,0.33,1.07,0.79,1.41,1.4
				c0.35,0.61,0.52,1.3,0.52,2.09s-0.18,1.48-0.53,2.09c-0.35,0.61-0.84,1.08-1.45,1.41s-1.29,0.5-2.02,0.5
				C332.97,389.2,332.31,389.03,331.72,388.7z M334.85,387.52c0.36-0.2,0.65-0.49,0.88-0.88c0.22-0.39,0.34-0.87,0.34-1.43
				c0-0.56-0.11-1.03-0.32-1.42c-0.21-0.39-0.5-0.68-0.85-0.88c-0.35-0.2-0.74-0.29-1.15-0.29s-0.79,0.1-1.14,0.29
				s-0.63,0.49-0.83,0.88c-0.21,0.39-0.31,0.86-0.31,1.42c0,0.83,0.21,1.47,0.64,1.92c0.42,0.45,0.96,0.68,1.6,0.68
				C334.11,387.81,334.49,387.72,334.85,387.52z"/>
			<path class="st7" d="M341.81,381.56c0.39-0.22,0.85-0.33,1.38-0.33v1.65h-0.41c-0.62,0-1.1,0.16-1.42,0.48
				c-0.32,0.32-0.48,0.87-0.48,1.65v4.06h-1.6v-7.71h1.6v1.12C341.11,382.09,341.42,381.78,341.81,381.56z"/>
			<path class="st7" d="M351.6,381.36l-4.73,11.34h-1.65l1.57-3.75l-3.04-7.59h1.78l2.17,5.88l2.25-5.88H351.6z"/>
			<path class="st7" d="M352.72,388.88c-0.2-0.2-0.29-0.44-0.29-0.73s0.1-0.53,0.29-0.73c0.2-0.2,0.44-0.29,0.73-0.29
				c0.28,0,0.52,0.1,0.71,0.29c0.2,0.2,0.29,0.44,0.29,0.73s-0.1,0.53-0.29,0.73c-0.2,0.2-0.43,0.29-0.71,0.29
				C353.16,389.17,352.92,389.07,352.72,388.88z"/>
		</g>
	</g>
</g>
<g id="OBJECTS">
</g>
</svg>
